<?xml version="1.0" encoding="UTF-8" standalone="no"?>
<svg width="48px" height="48px" viewBox="0 0 48 48" version="1.1" xmlns="http://www.w3.org/2000/svg" xmlns:xlink="http://www.w3.org/1999/xlink" xmlns:sketch="http://www.bohemiancoding.com/sketch/ns">
    <title>Slice 1</title>
    <description>Created with Sketch (http://www.bohemiancoding.com/sketch)</description>
    <defs></defs>
    <g id="Page-1" stroke="none" stroke-width="1" fill="none" fill-rule="evenodd" sketch:type="MSPage">
        <g id="instagram" sketch:type="MSLayerGroup" transform="translate(2.000000, 2.000000)">
            <rect id="Rectangle" sketch:type="MSShapeGroup" x="0" y="0" width="44" height="44"></rect>
            <g id="Oval" stroke="#787887" stroke-width="3" sketch:type="MSShapeGroup">
                <circle id="path-7" cx="22" cy="22" r="22"></circle>
            </g>
            <path d="M21.5000001,11 C24.9198249,11 25.3248697,11.0130151 26.6753919,11.0746336 C27.9241317,11.1316256 28.6022907,11.3402743 29.053651,11.5156226 C29.6514315,11.7479627 30.0781343,12.0255509 30.5262917,12.4737083 C30.9744491,12.9218657 31.2520373,13.3485685 31.4843267,13.946349 C31.6597257,14.3977093 31.8683744,15.0758683 31.9253664,16.3245574 C31.9869849,17.6751303 32,18.0801751 32,21.4999999 C32,24.9198248 31.9869849,25.3248696 31.9253664,26.6753918 C31.8683744,27.9241317 31.6597257,28.6022907 31.4843267,29.053651 C31.2520373,29.6514315 30.9744491,30.0781342 30.5262917,30.5262917 C30.0781343,30.9744491 29.6514315,31.2520372 29.053651,31.4843266 C28.6022907,31.6597257 27.9241317,31.8683744 26.6753919,31.9253664 C25.325073,31.9869848 24.9200282,32 21.5000001,32 C18.0799718,32 17.674927,31.9869848 16.3246082,31.9253664 C15.0758683,31.8683744 14.3977093,31.6597257 13.9463999,31.4843266 C13.3485685,31.2520372 12.9218658,30.9744491 12.4737083,30.5262917 C12.0255509,30.0781342 11.7479628,29.6514315 11.5156734,29.053651 C11.3402743,28.6022907 11.1316256,27.9241317 11.0746336,26.6754426 C11.0130152,25.3248696 11,24.9198248 11,21.4999999 C11,18.0801751 11.0130152,17.6751303 11.0746336,16.3246081 C11.1316256,15.0758683 11.3402743,14.3977093 11.5156734,13.946349 C11.7479628,13.3485685 12.0255509,12.9218657 12.4737083,12.4737083 C12.9218658,12.0255509 13.3485685,11.7479627 13.9463999,11.5156226 C14.3977093,11.3402743 15.0758683,11.1316256 16.3245574,11.0746336 C17.6751304,11.0130151 18.0801752,11 21.5000001,11 L21.5000001,11 Z M21.9999742,9 C18.4693604,9 18.0267048,9.01496501 16.6401167,9.07823105 C15.2563666,9.14139379 14.3114018,9.36112192 13.4844545,9.68250898 C12.6295895,10.0147328 11.9046108,10.4592461 11.1819026,11.1819543 C10.4591945,11.9046623 10.0146812,12.6296411 9.68245734,13.484506 C9.36107027,14.3114534 9.14134226,15.2564182 9.0781794,16.6401682 C9.01491348,18.0267048 9,18.469412 9,22.0000258 C9,25.5306396 9.01491348,25.9733467 9.0781794,27.3598833 C9.14134226,28.7436334 9.36107027,29.6885982 9.68245734,30.5155455 C10.0146812,31.3703589 10.4591945,32.0953892 11.1819026,32.8180974 C11.9046108,33.5408055 12.6295895,33.9853188 13.4844545,34.3175427 C14.3114018,34.6389297 15.2563666,34.8586577 16.6401167,34.9218206 C18.0267048,34.9850865 18.4693604,35 21.9999742,35 C25.530588,35 25.9732952,34.9850865 27.3598318,34.9218206 C28.7435818,34.8586577 29.6885466,34.6389297 30.515494,34.3175427 C31.3703589,33.9853188 32.0953377,33.5408055 32.8180457,32.8180974 C33.5407539,32.0953892 33.9852672,31.3704105 34.317491,30.5155455 C34.6388781,29.6885982 34.8586062,28.7436334 34.921769,27.3598833 C34.985035,25.9733467 35,25.5306396 35,22.0000258 C35,18.469412 34.985035,18.0267048 34.921769,16.6401682 C34.8586062,15.2564182 34.6388781,14.3114534 34.317491,13.484506 C33.9852672,12.6296411 33.5407539,11.9046623 32.8180457,11.1819543 C32.0953377,10.4592461 31.3703589,10.0147328 30.515494,9.68250898 C29.6885466,9.36112192 28.7435818,9.14139379 27.3598318,9.07823105 C25.9732952,9.01496501 25.530588,9 21.9999742,9 L21.9999742,9 Z M21.5,15 C17.9101651,15 15,17.9101651 15,21.5 C15,25.0898349 17.9101651,28 21.5,28 C25.0898349,28 28,25.0898349 28,21.5 C28,17.9101651 25.0898349,15 21.5,15 L21.5,15 Z M22.5,27 C20.0147486,27 18,24.9852514 18,22.5 C18,20.0147486 20.0147486,18 22.5,18 C24.9852514,18 27,20.0147486 27,22.5 C27,24.9852514 24.9852514,27 22.5,27 L22.5,27 Z M30,14.4999752 C30,15.3284101 29.3284597,16 28.5000248,16 C27.6715899,16 27,15.3284101 27,14.4999752 C27,13.6715403 27.6715899,13 28.5000248,13 C29.3284597,13 30,13.6715403 30,14.4999752 L30,14.4999752 Z" id="Shape" fill="#787887" sketch:type="MSShapeGroup"></path>
        </g>
    </g>
</svg>