<?xml version="1.0" encoding="UTF-8" standalone="no"?>
<svg width="48px" height="48px" viewBox="0 0 48 48" version="1.1" xmlns="http://www.w3.org/2000/svg" xmlns:xlink="http://www.w3.org/1999/xlink" xmlns:sketch="http://www.bohemiancoding.com/sketch/ns">
    <title>Slice 1</title>
    <description>Created with Sketch (http://www.bohemiancoding.com/sketch)</description>
    <defs></defs>
    <g id="Page-1" stroke="none" stroke-width="1" fill="none" fill-rule="evenodd" sketch:type="MSPage">
        <g id="pinterest-light" sketch:type="MSLayerGroup" transform="translate(2.000000, 2.000000)">
            <rect id="Rectangle" sketch:type="MSShapeGroup" x="0" y="0" width="44" height="44"></rect>
            <g id="Oval" stroke="#787887" stroke-width="3" sketch:type="MSShapeGroup">
                <circle id="path-63" cx="22" cy="22" r="22"></circle>
            </g>
            <path d="M14.4953324,24.3480744 C14.8863071,24.5090204 15.2360279,24.3537549 15.3494762,23.9163607 C15.4282337,23.6143504 15.614814,22.8512776 15.6973217,22.5331727 C15.8117076,22.101459 15.7676409,21.9499805 15.4516733,21.5731778 C14.7653582,20.7542471 14.3256288,19.6948444 14.3256288,18.1933139 C14.3256288,13.8392539 17.5518731,9.94057623 22.7283029,9.94057623 C27.3112388,9.94057623 29.8286657,12.7684903 29.8286657,16.5440918 C29.8286657,21.5125864 27.6506461,25.7066471 24.4187763,25.7066471 C22.6326688,25.7066471 21.2966044,24.2155307 21.7250825,22.3873747 C22.2379439,20.2041909 23.2308508,17.8477535 23.2308508,16.2723773 C23.2308508,14.8617338 22.4807795,13.685882 20.9300069,13.685882 C19.1054584,13.685882 17.6381313,15.5916708 17.6381313,18.1450301 C17.6381313,19.7724772 18.1828707,20.871643 18.1828707,20.871643 C18.1828707,20.871643 16.3151931,28.8630803 15.9879743,30.2623628 C15.33635,33.0495671 15.8904652,36.4654072 15.9373446,36.8100207 C15.9645347,37.0145167 16.2242469,37.0637471 16.3423831,36.9094284 C16.5111491,36.6869444 18.6835433,33.9773729 19.4242388,31.2706416 C19.6323835,30.5037817 20.6234153,26.5340985 20.6234153,26.5340985 C21.2169092,27.6758676 22.949574,28.681306 24.7919368,28.681306 C30.2787086,28.681306 34,23.6313918 34,16.8716641 C34,11.7602117 29.7124047,7 23.19616,7 C15.0888264,7 11,12.8697916 11,17.7644404 C11,20.7286852 12.1119808,23.3653577 14.4953324,24.3480744 Z" id="Shape" fill="#787887" sketch:type="MSShapeGroup"></path>
        </g>
    </g>
</svg>