<?xml version="1.0" encoding="UTF-8"?>
<svg width="94px" height="94px" viewBox="0 0 94 94" version="1.1" xmlns="http://www.w3.org/2000/svg" xmlns:xlink="http://www.w3.org/1999/xlink">
    <!-- Generator: Sketch 46.1 (44463) - http://www.bohemiancoding.com/sketch -->
    <title>Oval</title>
    <desc>Created with Sketch.</desc>
    <defs></defs>
    <g id="Page-1" stroke="none" stroke-width="1" fill="none" fill-rule="evenodd">
        <g id="instablue" transform="translate(3.000000, 3.000000)">
            <g id="Oval">
                <circle id="path-7" stroke="#787887" stroke-width="6" cx="44" cy="44" r="44"></circle>
                <path d="M45.0344447,69 C47.116936,69 54.2902025,68.4369885 57.6703211,60.8090562 C58.7836572,58.2984179 58.4985478,53.7484997 58.2698098,50.0932897 C58.2329515,49.5128205 58.1982614,48.9509002 58.1700757,48.4140753 L58.1570669,48.1838516 L58.3110043,48.0114566 C58.371712,47.9427169 58.9506034,47.3338789 60.2373901,47.2836879 L60.2590714,47.2825968 L60.2796686,47.2836879 C61.1306607,47.3164212 62.0889753,47.5815603 63.1307629,48.0725586 C63.2825322,48.1445717 63.4874207,48.1794872 63.7031499,48.1794872 C63.949233,48.1794872 64.2104929,48.1336607 64.4262221,48.0420076 L64.4587441,48.0289143 C65.0040295,47.8368794 65.389957,47.4735406 65.3964614,47.1451173 C65.3997136,46.9585379 65.2609532,46.2907801 63.3269789,45.5215494 C63.1372673,45.446263 62.8879321,45.3666121 62.5995705,45.2749591 C61.3409695,44.8723404 59.4395173,44.2656847 58.7988341,42.7490453 C58.4389241,41.8925259 58.5364901,40.8832515 59.0926161,39.7484997 C59.3213541,39.212766 62.9128656,31.0654664 71,29.7244954 C70.9978319,29.6863066 70.9880753,29.6437534 70.9663939,29.5935625 C70.8298016,29.2684124 69.9582123,28.146754 64.537881,27.3055101 C63.6890571,27.1734861 63.4820004,26.2165848 63.2402536,25.1036552 C63.1546124,24.7064921 63.0646349,24.3049645 62.9432195,23.8892526 C62.9063612,23.7637752 62.8998568,23.7561375 62.7654326,23.7561375 L62.7014727,23.7561375 C62.461894,23.7561375 62.0954796,23.8063284 61.6726938,23.8892526 C60.9040908,24.0409165 59.8514625,24.2264048 58.5061362,24.2264048 C57.7559624,24.2264048 56.981939,24.1598472 56.2057476,24.0310966 C54.5471262,23.7528642 53.1974637,22.7926896 51.7686643,21.7768685 C49.8509511,20.410802 47.8671098,19 44.8414809,19 C44.7103089,19 44.581305,19.0043644 44.451217,19.0109111 L44.417611,19.0120022 L44.3829208,19.00982 C44.3092043,19.0032733 44.2344038,19 44.1574351,19 C41.1318061,19 39.1479648,20.410802 37.2302516,21.7757774 C35.8014522,22.7926896 34.4517897,23.7528642 32.7942524,24.0310966 C32.018061,24.1598472 31.2440376,24.2264048 30.4938638,24.2264048 C29.1485375,24.2264048 28.0959092,24.0201855 27.3262221,23.8685215 C26.9034363,23.7845063 26.538106,23.7135843 26.2974432,23.7135843 C26.1023113,23.7135843 26.097975,23.7244954 26.0567805,23.8674304 C25.9353651,24.2831424 25.8453876,24.695581 25.7597464,25.0927441 C25.5179996,26.2056738 25.3087748,27.1680306 24.462119,27.3000546 C19.0407036,28.1423895 18.1701984,29.2662302 18.032522,29.5902891 C18.0108407,29.6404801 18.0021681,29.6852155 18,29.7234043 C26.0860503,31.0643753 29.6786459,39.2105837 29.9073839,39.7484997 C30.4624259,40.8832515 30.5610759,41.8914348 30.2000818,42.7479542 C29.5604827,44.2656847 27.6590305,44.8723404 26.3993455,45.2749591 C26.1109838,45.3666121 25.8616486,45.446263 25.6730211,45.5215494 C24.0382491,46.1718494 23.5363264,46.8254228 23.6122111,47.2225859 C23.6978523,47.67976 24.4859685,48.1445717 25.1732665,48.1445717 C25.3272039,48.1445717 25.4627122,48.1205674 25.5624463,48.0725586 C26.6790346,47.5466448 27.6991409,47.2793235 28.5924115,47.2793235 C29.9973614,47.2793235 30.6239517,47.9372613 30.6900798,48.0125477 L30.8429331,48.1838516 L30.8299243,48.4129842 C30.8017386,48.9498091 30.7659644,49.5106383 30.7301902,50.0900164 C30.5014522,53.7463175 30.2163428,58.2929624 31.3296789,60.8046918 C34.6967887,68.4042553 41.834281,68.99018 43.9417059,68.99018 C43.9937411,68.99018 44.9097771,68.9989089 44.9097771,68.9989089 C44.9488034,69 44.989998,69 45.0344447,69" id="path3656" fill="#787887" fill-rule="nonzero" transform="translate(44.500000, 44.000000) scale(1, -1) translate(-44.500000, -44.000000) "></path>
            </g>
        </g>
    </g>
</svg>