<?xml version="1.0" encoding="UTF-8" standalone="no"?>
<svg width="44px" height="44px" viewBox="0 0 44 44" version="1.1" xmlns="http://www.w3.org/2000/svg" xmlns:xlink="http://www.w3.org/1999/xlink">
    <!-- Generator: Sketch 39.1 (31720) - http://www.bohemiancoding.com/sketch -->
    <title>twitter</title>
    <desc>Created with Sketch.</desc>
    <defs>
        <circle id="path-1" cx="22" cy="22" r="22"></circle>
        <mask id="mask-2" maskContentUnits="userSpaceOnUse" maskUnits="objectBoundingBox" x="0" y="0" width="44" height="44" fill="white">
            <use xlink:href="#path-1"></use>
        </mask>
    </defs>
    <g id="Page-1" stroke="none" stroke-width="1" fill="none" fill-rule="evenodd">
        <g id="twitter">
            <rect id="Rectangle" x="0" y="0" width="44" height="44"></rect>
            <use id="Oval" stroke="#787887" mask="url(#mask-2)" stroke-width="6" xlink:href="#path-1"></use>
            <path d="M32.0549392,15.3200202 C33.1143981,14.6648129 33.9273346,13.6258847 34.3088572,12.388271 C33.3168985,12.9964611 32.2207548,13.4362993 31.0512414,13.6744186 C30.1179785,12.6430738 28.7841169,12 27.3079181,12 C24.4758467,12 22.1808417,14.3736097 22.1808417,17.3008089 C22.1808417,17.7163802 22.2233961,18.1213347 22.3114398,18.508089 C18.0501262,18.2866532 14.2715854,16.1784631 11.7403299,12.9691608 C11.2986441,13.7548028 11.0462523,14.6648129 11.0462523,15.6354904 C11.0462523,17.4737108 11.9516347,19.0965622 13.3280507,20.0490394 C12.4872337,20.0217391 11.696308,19.7805865 11.0036978,19.3862487 L11.0036978,19.4514661 C11.0036978,22.020728 12.7704408,24.1638018 15.1197394,24.6491405 C14.6883254,24.7735086 14.2363679,24.8356926 13.7668017,24.8356926 C13.4366379,24.8356926 13.1138111,24.8038423 12.8027235,24.7416582 C13.4542466,26.846815 15.3486529,28.3816987 17.5937665,28.4226491 C15.8372953,29.8452983 13.6259318,30.6916077 11.223807,30.6916077 C10.8100018,30.6916077 10.4005987,30.6688574 10,30.6188069 C12.2700593,32.1218402 14.965663,33 17.8622997,33 C27.2976463,33 32.4540706,24.9221436 32.4540706,17.9165824 C32.4540706,17.6860465 32.4511358,17.4570273 32.440864,17.2310415 C33.4430944,16.4833165 34.3147268,15.5490394 35,14.4858443 C34.0799437,14.9074823 33.0909198,15.1926188 32.0549392,15.3200202 Z" id="Shape" fill="#787887"></path>
        </g>
    </g>
</svg>