<?xml version="1.0" encoding="UTF-8" standalone="no"?>
<svg width="48px" height="48px" viewBox="0 0 48 48" version="1.1" xmlns="http://www.w3.org/2000/svg" xmlns:xlink="http://www.w3.org/1999/xlink" xmlns:sketch="http://www.bohemiancoding.com/sketch/ns">
    <title>Slice 1</title>
    <description>Created with Sketch (http://www.bohemiancoding.com/sketch)</description>
    <defs></defs>
    <g id="Page-1" stroke="none" stroke-width="1" fill="none" fill-rule="evenodd" sketch:type="MSPage">
        <g id="youtube" sketch:type="MSLayerGroup" transform="translate(2.000000, 2.000000)">
            <rect id="Rectangle" sketch:type="MSShapeGroup" x="0" y="0" width="44" height="44"></rect>
            <g id="Oval" stroke="#787887" stroke-width="3" sketch:type="MSShapeGroup">
                <circle id="path-23" cx="22" cy="22" r="22"></circle>
            </g>
            <path d="M15.5165729,27.1792454 L15.5351811,22.6418622 L16.3831873,22.6329706 L17.2303074,22.6223007 L17.2205601,21.923421 L17.2099269,21.2236521 L14.7624942,21.2138713 L12.3168338,21.2040905 L12.3168338,21.9136402 L12.3168338,22.6223007 L13.1444595,22.6329706 L13.972085,22.6418622 L13.9818323,27.1419007 C13.9862628,29.6164328 13.9986684,31.6632791 14.0084156,31.6890647 C14.0217072,31.7255203 14.1936123,31.7344119 14.7616081,31.7264095 L15.4979645,31.7166287 L15.5165729,27.1792454 L15.5165729,27.1792454 Z M29.6331731,26.860037 C29.5986148,26.7693427 29.6464647,25.7210231 29.6925424,25.5689767 C29.7997615,25.2115344 30.0274915,25.0372591 30.3863656,25.0372591 C30.6849842,25.0372591 30.8746115,25.1528499 31.0022112,25.4124846 C31.0828471,25.5769792 31.0908222,25.6472228 31.1032276,26.2554083 L31.1156332,26.9178324 L30.3845934,26.9178324 C29.7563422,26.9178324 29.6517813,26.90983 29.6331731,26.860037 L29.6331731,26.860037 L29.6331731,26.860037 Z M30.9977807,31.7486384 C31.7137566,31.5467991 32.2090915,31.0559828 32.3960604,30.3633272 C32.4270742,30.245069 32.4634048,29.9080774 32.4758102,29.6155437 L32.4970769,29.083826 L31.8076842,29.083826 L31.1174054,29.083826 L31.1005693,29.5604158 C31.0810749,30.1019142 31.0252501,30.2877486 30.8285338,30.4611348 C30.6194122,30.6451909 30.234841,30.6585283 29.9849582,30.489588 C29.6872257,30.2877486 29.6136787,29.9472004 29.6287425,28.8410854 L29.6393758,28.0568463 L31.0668972,28.0479547 L32.4944186,28.0372848 L32.4758102,26.8707069 C32.4527714,25.5689767 32.4261882,25.3715832 32.2082054,24.9092201 C31.7926203,24.0333976 30.641565,23.591485 29.6854534,23.9409249 C28.9641609,24.2050054 28.5379425,24.6807059 28.3669235,25.4169304 C28.306668,25.6765651 28.2995792,25.909525 28.2995792,27.8141056 C28.2995792,30.1499288 28.3075542,30.245069 28.5450314,30.723437 C28.9694775,31.5743631 30.0319221,32.018943 30.9977807,31.7486384 L30.9977807,31.7486384 L30.9977807,31.7486384 Z M25.3452923,30.4184552 C25.433017,30.3588814 25.4906142,30.2761895 25.5358057,30.1472613 C25.5934027,29.9774318 25.5987194,29.761366 25.5907444,27.7580886 C25.5827694,25.670341 25.578339,25.5476369 25.5109946,25.4107063 C25.3382034,25.0612664 24.903124,25.0274783 24.504375,25.3333493 L24.3732308,25.4329352 L24.3732308,27.8141056 L24.3732308,30.195276 L24.5034888,30.294862 C24.7985631,30.5207085 25.1219928,30.567834 25.3452923,30.4184552 L25.3452923,30.4184552 L25.3452923,30.4184552 Z M26.2092484,31.762865 C26.426345,31.6997346 26.6886333,31.4409891 26.8064858,31.1769086 C27.0333296,30.6709766 27.0342158,30.6585283 27.0342158,27.8141056 C27.0342158,25.4791716 27.0271269,25.1910838 26.9695298,24.9385623 C26.7825608,24.130316 26.3749508,23.7773194 25.6891025,23.8288907 C25.3054173,23.8591222 25.0032542,24.0120577 24.6408358,24.3632759 C24.4831083,24.5153223 24.342217,24.6406937 24.3262671,24.6406937 C24.3120893,24.6406937 24.2987977,23.8671246 24.2987977,22.9228367 L24.2987977,21.2049797 L23.6288994,21.2049797 L22.9590011,21.2049797 L22.9590011,26.4696958 L22.9590011,31.735301 L23.6288994,31.735301 L24.2987977,31.735301 L24.2987977,31.3805262 C24.2987977,31.1448988 24.3129755,31.0257513 24.3404448,31.0257513 C24.3625975,31.0257513 24.5132361,31.1502337 24.6753939,31.3031693 C25.196426,31.7948747 25.6474554,31.930027 26.2092484,31.762865 L26.2092484,31.762865 L26.2092484,31.762865 Z M19.0787304,31.7281878 C19.3463353,31.6286019 19.660904,31.4098684 19.9258505,31.1395638 C20.0472474,31.0150814 20.1686443,30.9137173 20.1952276,30.9137173 C20.2306719,30.9137173 20.2430775,31.0150814 20.2430775,31.3245091 L20.2430775,31.735301 L20.9129758,31.735301 L21.582874,31.735301 L21.582874,27.8327779 L21.582874,23.9311442 L20.9129758,23.9311442 L20.2430775,23.9311442 L20.2430775,26.9409506 L20.2430775,29.9516461 L19.954206,30.2388448 C19.7255899,30.467359 19.6298901,30.5367134 19.4881127,30.5758365 C19.2488633,30.6425234 19.0964526,30.5962871 18.9980946,30.4264576 C18.9236614,30.3001969 18.9218892,30.2415123 18.9112558,27.1143368 L18.9015087,23.9311442 L18.2316104,23.9311442 L17.5634843,23.9311442 L17.5634843,27.3108411 C17.5634843,30.9928525 17.5670287,31.0728769 17.772606,31.4276517 C17.9976776,31.8153255 18.5240263,31.9371404 19.0787304,31.7281878 L19.0787304,31.7281878 L19.0787304,31.7281878 Z M19.6476124,34.9842916 C18.7774534,34.9691758 17.7477949,34.9451685 17.3587931,34.9309419 C14.7474304,34.836691 12.9548322,34.7362159 12.5968441,34.6633048 C12.0864454,34.5601622 11.5157913,34.2133898 11.1843867,33.8052654 C10.6544935,33.1517329 10.3709387,32.3586022 10.2335918,31.1377855 C9.91547875,28.299587 9.92256757,24.9892444 10.2530862,22.2506319 C10.3984081,21.0502659 10.7590544,20.183335 11.3642667,19.5787061 C11.7098492,19.2328229 12.04214,19.0407644 12.4843083,18.9269519 C13.4430781,18.6806546 20.9448757,18.4850394 25.5083363,18.5864037 C28.1445102,18.6450882 30.992464,18.7677923 31.7492009,18.8540408 C32.7283513,18.966075 33.4159717,19.4746745 33.8918122,20.439413 C34.2515724,21.167635 34.3658805,21.734919 34.5120884,23.4830075 C34.6263965,24.8665404 34.654752,25.7290255 34.6334853,27.3268459 C34.6095604,29.2385399 34.4881635,30.9226089 34.3065112,31.8677858 C34.1151117,32.8672017 33.6631962,33.7190169 33.0774782,34.180491 C32.6264488,34.5370441 32.1452916,34.6962037 31.3876685,34.7388833 C31.1625969,34.7522207 30.878156,34.770004 30.7549869,34.7797847 C30.3190213,34.8135728 27.9814662,34.9078238 26.6992666,34.9442793 C24.7941325,34.997629 21.4605911,35.0163013 19.6476124,34.9842916 L19.6476124,34.9842916 Z M16.2966655,17.6409274 C16.2647655,17.5884669 16.2700823,14.5164193 16.3019821,14.0816201 C16.3436292,13.5241168 16.2497018,13.0848717 15.8509528,11.9627519 C15.7215809,11.5990854 15.4876482,10.8930924 15.331693,10.395163 C14.2036764,6.79495427 14.2630457,7.00568522 14.371151,7.00479606 C15.1145963,6.99857189 16.031719,7.00301772 16.0423522,7.01368762 C16.0494412,7.02080086 16.2904627,7.89929089 16.5784481,8.96717202 C16.8673196,10.034164 17.1074551,10.9224348 17.1136579,10.9419962 C17.1189745,10.9597795 17.2882213,10.3382566 17.4893681,9.5602417 C17.9102698,7.92774404 18.1468608,7.02702503 18.1557219,7.01902252 C18.1743301,7.00123938 18.3834518,6.99768273 19.0684141,7.00123938 L19.826037,7.00568522 L19.809201,7.12750012 C19.7959094,7.22619687 19.2784218,8.96895036 18.7370093,10.7392678 C18.6785261,10.934883 18.5270015,11.4390367 18.4020602,11.8604985 C18.2771188,12.2810711 18.1264803,12.7807791 18.0662248,12.9710592 L17.9572335,13.3178316 L17.9572335,15.4802687 C17.9572335,17.5084426 17.952803,17.644484 17.8925476,17.6604889 C17.7560868,17.6978337 16.3205905,17.6800504 16.2966655,17.6409274 L16.2966655,17.6409274 Z M26.0881684,17.7707448 C25.7142304,17.7209518 25.4953616,17.5760187 25.3456092,17.2781501 C25.157754,16.904703 25.157754,16.9064812 25.157754,13.1853468 L25.157754,9.71317726 L25.9127188,9.71317726 L26.6667975,9.71317726 L26.6827474,12.914153 C26.6995834,16.3907685 26.695153,16.309855 26.9025025,16.3623153 C27.0930158,16.4094409 27.3039097,16.3071875 27.566198,16.0386612 L27.8178528,15.7816939 L27.8276001,12.746991 L27.8364612,9.71317726 L28.5905398,9.70250735 L29.3446185,9.69361567 L29.3446185,13.6672715 L29.3446185,17.6418165 L29.2418298,17.6631563 C29.1186607,17.688942 27.9755803,17.6871636 27.8834249,17.6604889 C27.8276001,17.6453732 27.818739,17.5938019 27.818739,17.2825959 L27.818739,16.9215969 L27.6043006,17.1314387 C27.1116241,17.6124742 26.5799588,17.8365425 26.0881684,17.7707448 L26.0881684,17.7707448 L26.0881684,17.7707448 Z M22.2885336,16.2529487 C22.5472774,16.0555551 22.5490496,16.0386612 22.5623412,13.8042022 C22.5738606,12.0676727 22.5676579,11.7724716 22.5153775,11.5359551 C22.4444887,11.2158575 22.3204335,11.0647004 22.0776397,10.9980134 C21.7639571,10.9144324 21.4768579,11.0940426 21.3758415,11.4381475 C21.2996362,11.7031172 21.3005222,15.6420958 21.3776137,15.9070654 C21.4360969,16.1062373 21.6230658,16.3240815 21.7612988,16.3543129 C21.9411789,16.3925468 22.16182,16.3498671 22.2894197,16.2529487 L22.2885336,16.2529487 L22.2885336,16.2529487 Z M21.697499,17.7689664 C21.0222841,17.6871636 20.4020078,17.2888201 20.1033891,16.7446542 C19.7994538,16.1907075 19.7710984,15.9008414 19.7888206,13.4609864 C19.8029982,11.5715216 19.8083149,11.4532632 19.882748,11.1820695 C20.0608559,10.5374285 20.4055523,10.0981835 20.9398759,9.83232465 C21.673574,9.4686583 22.4648693,9.51578375 23.1569203,9.96569862 C23.5982025,10.251119 23.8658074,10.6654676 24.009357,11.2816554 C24.0722708,11.5537383 24.0784735,11.7626909 24.0784735,13.6708282 C24.0784735,15.9915356 24.0678401,16.1257989 23.830363,16.6281742 C23.602633,17.1127664 23.0869177,17.5395631 22.5490496,17.6898311 C22.3115724,17.7547399 21.8995318,17.7938629 21.697499,17.7689664 L21.697499,17.7689664 L21.697499,17.7689664 Z" id="Shape" fill="#787887" sketch:type="MSShapeGroup"></path>
        </g>
    </g>
</svg>